<?xml version="1.0" standalone="no"?>
<!DOCTYPE svg PUBLIC "-//W3C//DTD SVG 20010904//EN"
 "http://www.w3.org/TR/2001/REC-SVG-20010904/DTD/svg10.dtd">
<svg version="1.0" xmlns="http://www.w3.org/2000/svg"
 width="700.000000pt" height="700.000000pt" viewBox="0 0 700.000000 700.000000"
 preserveAspectRatio="xMidYMid meet">
<metadata>
Created by potrace 1.14, written by Peter Selinger 2001-2017
</metadata>
<g transform="translate(0.000000,700.000000) scale(0.100000,-0.100000)"
fill="#000000" stroke="none">
<path d="M3263 6848 c-45 -4 -99 -10 -120 -13 -21 -4 -51 -9 -66 -11 -93 -17
-251 -76 -367 -138 -158 -84 -366 -268 -455 -401 -22 -33 -45 -65 -51 -71 -37
-40 -149 -308 -170 -405 -19 -92 -25 -132 -31 -194 -37 -417 102 -800 397
-1095 114 -115 240 -205 372 -268 78 -37 213 -86 268 -97 152 -32 225 -38 430
-38 313 0 474 34 705 148 352 174 615 501 710 884 32 129 36 165 40 306 7 280
-66 540 -216 770 -229 353 -608 585 -1017 621 -97 9 -334 10 -429 2z"/>
<path d="M563 6128 c-127 -56 -183 -145 -198 -313 -5 -61 -28 -254 -40 -340
-3 -16 -12 -79 -20 -140 -15 -100 -69 -444 -80 -505 -3 -14 -21 -117 -40 -230
-20 -113 -44 -254 -55 -315 -11 -60 -22 -123 -24 -140 -3 -16 -16 -95 -30
-175 -14 -80 -32 -194 -41 -255 -9 -60 -20 -132 -25 -160 -5 -27 -9 -244 -10
-482 l0 -432 27 -68 c61 -155 145 -289 322 -512 63 -80 150 -192 192 -247 78
-104 189 -280 189 -302 0 -9 -37 -12 -137 -12 -112 0 -146 -4 -178 -19 -50
-23 -91 -70 -105 -121 -7 -24 -10 -212 -10 -510 1 -398 3 -478 16 -509 20 -49
51 -80 99 -101 38 -17 111 -18 1180 -18 691 0 1155 3 1177 9 49 13 97 54 119
104 17 37 19 76 19 526 0 519 0 524 -50 577 -36 38 -65 52 -125 60 -57 7 -59
8 -71 47 -7 22 -31 100 -54 174 -23 74 -58 163 -76 200 -31 58 -110 171 -160
227 -46 51 -170 188 -181 199 -6 7 -34 43 -62 80 -96 128 -104 152 -216 664
-2 9 -20 86 -40 171 -19 85 -42 184 -50 220 -37 174 -67 287 -91 348 -83 206
-221 337 -434 412 -36 13 -66 24 -68 25 -2 2 -17 85 -27 150 -3 22 -8 51 -10
65 -6 39 -37 242 -41 275 -2 17 -9 55 -14 85 -5 30 -13 75 -16 100 -3 25 -8
54 -9 65 -14 84 -37 236 -40 261 -4 26 -25 164 -40 254 -7 40 -23 151 -30 195
-3 23 -7 50 -9 60 -2 11 -7 45 -11 75 -24 179 -135 289 -299 297 -57 3 -81 -1
-123 -19z"/>
<path d="M6175 6141 c-132 -33 -217 -142 -239 -306 -4 -37 -16 -113 -31 -210
-4 -22 -8 -56 -11 -75 -2 -19 -11 -73 -19 -120 -8 -47 -17 -107 -20 -135 -4
-27 -8 -57 -10 -65 -3 -8 -9 -44 -14 -80 -34 -230 -38 -257 -46 -300 -3 -14
-7 -45 -10 -70 -6 -48 -10 -73 -25 -160 -6 -30 -12 -75 -15 -100 -3 -25 -13
-92 -23 -148 l-17 -104 -80 -31 c-111 -44 -154 -69 -225 -128 -91 -75 -155
-168 -210 -304 -18 -45 -173 -709 -235 -1008 -2 -10 -6 -26 -9 -35 -3 -9 -8
-29 -11 -44 -13 -71 -17 -85 -37 -132 -38 -89 -123 -211 -212 -302 -60 -61
-157 -175 -204 -238 -74 -98 -122 -204 -178 -388 l-48 -158 -41 0 c-58 0 -124
-37 -160 -88 l-30 -44 1 -501 c0 -491 1 -503 21 -542 26 -48 53 -72 102 -90
47 -16 2306 -19 2355 -2 17 5 46 24 65 41 64 59 63 49 63 586 0 538 0 535 -64
592 -45 40 -85 48 -235 48 -73 0 -133 4 -133 9 0 4 28 55 63 112 66 110 137
208 317 434 309 389 395 592 394 925 -1 91 -13 295 -19 320 -2 8 -7 44 -10 80
-7 71 -49 371 -65 460 -5 30 -12 69 -14 85 -10 63 -132 769 -151 875 -12 71
-28 166 -70 430 -2 14 -6 45 -10 70 -3 25 -8 56 -10 70 -3 14 -7 39 -9 55 -5
31 -42 342 -52 430 -3 28 -10 66 -16 85 -46 147 -210 238 -363 201z"/>
</g>
</svg>
